<?xml version="1.0" encoding="UTF-8"?>
<svg version="1.1" xmlns="http://www.w3.org/2000/svg" width="200" height="200" viewBox="240 80 200 200">
<path d="M0 0 C0.8132222 -0.00095673 1.6264444 -0.00191345 2.46430969 -0.00289917 C4.17811155 -0.00357826 5.89191601 -0.0017429 7.60571289 0.00244141 C10.23915309 0.00781428 12.87242433 0.00247664 15.50585938 -0.00390625 C17.17057329 -0.00324583 18.83528711 -0.00196541 20.5 0 C21.6874305 -0.00303635 21.6874305 -0.00303635 22.89884949 -0.00613403 C28.43581638 0.01784763 28.43581638 0.01784763 29.55078125 1.1328125 C30.52662917 6.49997608 27.38126547 9.8982298 24.55078125 14.1328125 C20.84560537 20.11274783 17.37174805 26.19773588 14.04296875 32.39453125 C12.25915036 35.66797809 10.40894409 38.90127777 8.55078125 42.1328125 C8.1424707 42.84590576 7.73416016 43.55899902 7.31347656 44.29370117 C-4.53443687 64.97029211 -14.21509936 81.71244926 -36.1640625 92.640625 C-38.69658386 94.2943398 -39.23890025 95.44053466 -40.44921875 98.1328125 C-38.74308149 100.6343376 -37.03494435 103.13442656 -35.32421875 105.6328125 C-34.82083984 106.36806152 -34.31746094 107.10331055 -33.79882812 107.86083984 C-31.25796069 111.5565725 -28.69197805 115.20754031 -25.94921875 118.7578125 C-23.67235007 121.71123645 -22.11794864 124.79535272 -20.44921875 128.1328125 C-19.76859375 128.8134375 -19.08796875 129.4940625 -18.38671875 130.1953125 C-16.18982965 132.3922016 -15.30888198 134.16306679 -14.44921875 137.1328125 C-14.77921875 137.7928125 -15.10921875 138.4528125 -15.44921875 139.1328125 C-20.39921875 139.1328125 -25.34921875 139.1328125 -30.44921875 139.1328125 C-30.54203125 141.4221875 -30.54203125 141.4221875 -30.63671875 143.7578125 C-31.42178121 152.5414099 -34.35589584 161.86052792 -39.44921875 169.1328125 C-40.10921875 169.1328125 -40.76921875 169.1328125 -41.44921875 169.1328125 C-41.67609375 169.6896875 -41.90296875 170.2465625 -42.13671875 170.8203125 C-45.95062999 177.54006087 -52.78862065 182.01254601 -59.57421875 185.3203125 C-61.12496094 186.08408203 -61.12496094 186.08408203 -62.70703125 186.86328125 C-67.33439246 189.0055781 -71.12581445 189.2561358 -76.13671875 189.1953125 C-76.83861328 189.19080078 -77.54050781 189.18628906 -78.26367188 189.18164062 C-79.99222413 189.16988177 -81.7207324 189.15194704 -83.44921875 189.1328125 C-84.38947185 170.02286112 -84.54836693 150.94614133 -84.25314331 131.81600952 C-84.21737839 129.45607142 -84.18634312 127.09605659 -84.16018677 124.73599243 C-84.12049138 121.37043539 -84.06110979 118.00577773 -83.99609375 114.640625 C-83.98652145 113.6426741 -83.97694916 112.64472321 -83.96708679 111.61653137 C-83.50568787 92.44253951 -74.53543229 81.21902604 -61.44921875 68.1328125 C-54.7366018 61.39422798 -49.90877118 54.27986675 -45.44189453 45.96484375 C-43.78609 42.90897627 -42.05345313 39.89753921 -40.32421875 36.8828125 C-39.99188232 36.30039795 -39.6595459 35.7179834 -39.31713867 35.11791992 C-36.85602784 30.81234833 -34.32577713 26.55261145 -31.75390625 22.3125 C-30.57009419 20.3347541 -29.44054038 18.33661436 -28.32421875 16.3203125 C-24.34254908 9.55147406 -18.33631764 2.92643117 -10.5365448 0.55007935 C-7.05630555 -0.14563777 -3.53529531 -0.00910989 0 0 Z " fill="#27B188" transform="translate(393.44921875,89.8671875)"/>
<path d="M0 0 C5.26524445 -0.09943082 10.52993343 -0.17173199 15.79589844 -0.21972656 C17.58440684 -0.23974959 19.37285054 -0.26697654 21.16113281 -0.30175781 C23.74300162 -0.35068955 26.3239995 -0.37306165 28.90625 -0.390625 C30.09112 -0.42159271 30.09112 -0.42159271 31.29992676 -0.45318604 C40.22304513 -0.4567324 46.52025797 3.74446056 52.91796875 9.6953125 C55.71449566 12.79090514 57.48900106 16.04050212 59.34765625 19.7578125 C61.36277413 23.7118263 63.6049924 27.5008819 65.875 31.3125 C69.82558349 37.98013572 73.69270526 44.68929704 77.50390625 51.4375 C78.76914435 53.85385326 78.76914435 53.85385326 80 55 C80.51171875 57.59765625 80.51171875 57.59765625 80 61 C77.91210933 63.80251208 75.38581888 66.08440934 72.8125 68.4375 C67.9185531 73.01298911 63.71725661 77.40607015 60 83 C49.89806355 81.71133655 41.22672419 75.98900462 35 68 C33.96134009 66.01980163 32.96360633 64.01778662 32 62 C27.4960598 53.81693757 22.69974875 45.80903292 17.875 37.8125 C14.23830727 31.78504974 10.66502736 25.75374954 7.3828125 19.5234375 C6.32938367 17.60107867 5.2069008 15.71638965 4.0546875 13.8515625 C3.39726562 12.78679687 2.73984375 11.72203125 2.0625 10.625 C1.45535156 9.66851562 0.84820312 8.71203125 0.22265625 7.7265625 C-1.20868988 4.53461491 -0.81746845 3.30380515 0 0 Z " fill="#1DA599" transform="translate(255,90)"/>
<path d="M0 0 C4.12060908 2.12359035 6.04838485 4.1413809 8.375 8.125 C10.64999779 11.88520377 12.99437342 15.38831422 15.75 18.8125 C18.35111063 22.05664689 20.17209136 25.25713946 22 29 C22.680625 29.680625 23.36125 30.36125 24.0625 31.0625 C26.2593891 33.2593891 27.14033677 35.03025429 28 38 C27.505 38.99 27.505 38.99 27 40 C22.05 40 17.1 40 12 40 C11.9071875 42.289375 11.9071875 42.289375 11.8125 44.625 C11.02743754 53.4085974 8.09332291 62.72771542 3 70 C2.34 70 1.68 70 1 70 C0.773125 70.556875 0.54625 71.11375 0.3125 71.6875 C-3.50141124 78.40724837 -10.3394019 82.87973351 -17.125 86.1875 C-18.15882813 86.69667969 -19.19265625 87.20585937 -20.2578125 87.73046875 C-26.82279572 90.76981283 -32.82444405 90.06583079 -40 90 C-40 83.73 -40 77.46 -40 71 C-38.39125 70.62875 -36.7825 70.2575 -35.125 69.875 C-27.50337548 67.80711738 -19.46604117 64.11888643 -14.90234375 57.37890625 C-11.74543559 51.43573907 -10.9063338 45.64644785 -10 39 C-14.95 39 -19.9 39 -25 39 C-24.00797563 34.03987815 -23.05150855 32.23381009 -20.1875 28.25 C-19.60331299 27.4293103 -19.60331299 27.4293103 -19.00732422 26.59204102 C-18.14891039 25.38668354 -17.2870833 24.18375163 -16.42236328 22.98291016 C-14.88161921 20.83496588 -13.35922659 18.67482191 -11.83984375 16.51171875 C-2.97803425 3.89980676 -2.97803425 3.89980676 0 0 Z " fill="#18253B" transform="translate(351,189)"/>
<path d="M0 0 C-0.90744966 8.77201336 -5.57172119 14.53323066 -10.74121094 21.33251953 C-19.08929019 31.98111092 -19.08929019 31.98111092 -25 44 C-20.05 44 -15.1 44 -10 44 C-9.53997924 52.58705416 -11.53681454 59.20793159 -17 66 C-23.50439808 72.03656434 -31.06644263 76 -40 76 C-40 82.27 -40 88.54 -40 95 C-40.33 95 -40.66 95 -41 95 C-41.68663318 78.61578022 -42.22099862 62.27133222 -41.6875 45.875 C-41.65277588 44.68044189 -41.61805176 43.48588379 -41.58227539 42.25512695 C-41.25418937 33.90127432 -40.16727491 27.64486168 -36.0625 20.25 C-35.30646484 18.86554688 -35.30646484 18.86554688 -34.53515625 17.453125 C-30.79294096 11.47319827 -25.64404604 9.00866508 -19 7 C-19 6.34 -19 5.68 -19 5 C-16.58570231 4.15919981 -14.16896007 3.32718598 -11.75 2.5 C-11.06808594 2.26152344 -10.38617188 2.02304688 -9.68359375 1.77734375 C-6.23586997 0.60578713 -3.68297096 0 0 0 Z " fill="#169990" transform="translate(351,184)"/>
<path d="M0 0 C0.66 0.33 1.32 0.66 2 1 C1.01 2.485 1.01 2.485 0 4 C0.185625 4.598125 0.37125 5.19625 0.5625 5.8125 C1.23004403 9.15022015 -0.37286132 11.13623591 -2 14 C-2.99 13.34 -3.98 12.68 -5 12 C-5.66 12 -6.32 12 -7 12 C-7 12.66 -7 13.32 -7 14 C-7.66 14 -8.32 14 -9 14 C-9.309375 14.78375 -9.61875 15.5675 -9.9375 16.375 C-11 19 -11 19 -12 21 C-12.66 21 -13.32 21 -14 21 C-12.57821655 14.83893839 -8.94558971 10.74994813 -5 6 C-4.48179687 5.36964844 -3.96359375 4.73929688 -3.4296875 4.08984375 C-2.29546755 2.71905792 -1.14925246 1.35820745 0 0 Z " fill="#37AB8A" transform="translate(328,161)"/>
<path d="M0 0 C5.25105442 -0.02464928 10.50207545 -0.04283568 15.75317383 -0.05493164 C17.54094021 -0.05997218 19.32870245 -0.06680454 21.11645508 -0.07543945 C23.68051168 -0.0875173 26.24451397 -0.09323094 28.80859375 -0.09765625 C29.6127623 -0.10281754 30.41693085 -0.10797882 31.24546814 -0.11329651 C33.16401715 -0.11349215 35.08245368 -0.06201983 37 0 C38 1 38 1 38.375 3.0625 C37.81955731 7.41346772 35.46718501 10.44901586 33 14 C31.90341064 10.71023192 32.20046862 9.28696233 33 6 C33.66 6 34.32 6 35 6 C35 4.35 35 2.7 35 1 C34.29504395 1.03552979 33.59008789 1.07105957 32.86376953 1.10766602 C29.61783644 1.26690549 26.37147635 1.41476709 23.125 1.5625 C22.01640625 1.61857422 20.9078125 1.67464844 19.765625 1.73242188 C13.06794989 2.02790754 6.64675992 1.90159021 0 1 C0 0.67 0 0.34 0 0 Z " fill="#4EA98F" transform="translate(385,90)"/>
<path d="M0 0 C0.66 0.99 1.32 1.98 2 3 C6.95 2.67 11.9 2.34 17 2 C16.67 2.66 16.34 3.32 16 4 C15.92934383 6.04055005 15.91578024 8.08334257 15.9375 10.125 C15.94652344 11.22070312 15.95554687 12.31640625 15.96484375 13.4453125 C15.97644531 14.28835937 15.98804688 15.13140625 16 16 C15.01 16.33 14.02 16.66 13 17 C13.33 13.04 13.66 9.08 14 5 C9.05 5 4.1 5 -1 5 C-0.67 3.35 -0.34 1.7 0 0 Z " fill="#092337" transform="translate(327,223)"/>
<path d="M0 0 C1.58206057 0.00667536 3.16410534 0.0186375 4.74609375 0.03515625 C5.55240234 0.03966797 6.35871094 0.04417969 7.18945312 0.04882812 C9.18753131 0.06065107 11.18557158 0.07858711 13.18359375 0.09765625 C13.18359375 0.42765625 13.18359375 0.75765625 13.18359375 1.09765625 C9.88359375 1.42765625 6.58359375 1.75765625 3.18359375 2.09765625 C3.18359375 3.08765625 3.18359375 4.07765625 3.18359375 5.09765625 C2.85359375 5.09765625 2.52359375 5.09765625 2.18359375 5.09765625 C1.85359375 6.74765625 1.52359375 8.39765625 1.18359375 10.09765625 C-1.25390625 8.97265625 -1.25390625 8.97265625 -3.81640625 7.09765625 C-4.69140625 3.97265625 -4.69140625 3.97265625 -4.81640625 1.09765625 C-3.81640625 0.09765625 -3.81640625 0.09765625 0 0 Z " fill="#269D93" transform="translate(258.81640625,89.90234375)"/>
<path d="M0 0 C0.99 0.66 1.98 1.32 3 2 C-0.24616956 8.72420838 -0.24616956 8.72420838 -3.5625 9.9375 C-4.366875 10.288125 -5.17125 10.63875 -6 11 C-6.65213292 13.02463255 -6.65213292 13.02463255 -7 15 C-7.99 15.33 -8.98 15.66 -10 16 C-8.55797524 11.84848662 -6.4989562 8.70021555 -3.875 5.1875 C-3.15054687 4.21167969 -2.42609375 3.23585937 -1.6796875 2.23046875 C-0.84824219 1.12638672 -0.84824219 1.12638672 0 0 Z " fill="#0B2839" transform="translate(351,189)"/>
<path d="M0 0 C-0.33 1.65 -0.66 3.3 -1 5 C-1.99 5.33 -2.98 5.66 -4 6 C-4.66 5.34 -5.32 4.68 -6 4 C-7.60875 4.556875 -7.60875 4.556875 -9.25 5.125 C-13.23826396 6.05559492 -13.72079119 5.95881942 -17 4 C-14.54453034 3.13670227 -12.08621957 2.28410564 -9.625 1.4375 C-8.57699219 1.0672168 -8.57699219 1.0672168 -7.5078125 0.68945312 C-2.2265625 -1.11328125 -2.2265625 -1.11328125 0 0 Z " fill="#10A08A" transform="translate(349,185)"/>
<path d="M0 0 C3.82364853 3.44128368 6.74070444 7.07380443 7.4375 12.25 C7.293125 13.1575 7.14875 14.065 7 15 C6.01 15.66 5.02 16.32 4 17 C3 15 3 15 3.125 12.1875 C2.98169195 8.53314474 1.91801271 7.03685346 0 4 C0 2.68 0 1.36 0 0 Z " fill="#5AACA4" transform="translate(328,136)"/>
<path d="M0 0 C0.66 0.33 1.32 0.66 2 1 C2 2.32 2 3.64 2 5 C1.34 5 0.68 5 0 5 C0 6.32 0 7.64 0 9 C-0.66 9 -1.32 9 -2 9 C-2.66 10.32 -3.32 11.64 -4 13 C-4.66 13 -5.32 13 -6 13 C-6 13.66 -6 14.32 -6 15 C-6.66 14.67 -7.32 14.34 -8 14 C-5.36 9.38 -2.72 4.76 0 0 Z " fill="#56B59A" transform="translate(349,134)"/>
<path d="M0 0 C4.95 0 9.9 0 15 0 C15.33266291 6.20970773 14.45029331 10.28264895 12 16 C11.67 16 11.34 16 11 16 C10.56774396 10.38067146 12.10375629 6.2146702 14 1 C9.38 1 4.76 1 0 0 Z " fill="#208282" transform="translate(326,228)"/>
<path d="M0 0 C5.2584002 0.67415387 10.02638346 2.24265549 15 4 C15 4.99 15 5.98 15 7 C9.14727744 6.54979057 4.91779881 3.96160773 0 1 C0 0.67 0 0.34 0 0 Z " fill="#58ACA3" transform="translate(300,166)"/>
<path d="M0 0 C0.33 0.66 0.66 1.32 1 2 C0.06553465 4.03144641 -0.93224776 6.03533587 -2 8 C-2.66 8 -3.32 8 -4 8 C-4.66 9.32 -5.32 10.64 -6 12 C-6.99 11.67 -7.98 11.34 -9 11 C-8.06558465 9.72689688 -7.12732889 8.456612 -6.1875 7.1875 C-5.66542969 6.47980469 -5.14335937 5.77210938 -4.60546875 5.04296875 C-3.16871123 3.21468607 -1.68184237 1.60103312 0 0 Z " fill="#56B195" transform="translate(339,150)"/>
<path d="M0 0 C0.33 0.66 0.66 1.32 1 2 C1.66 2.33 2.32 2.66 3 3 C2.01 3.33 1.02 3.66 0 4 C0 4.66 0 5.32 0 6 C-0.66 6 -1.32 6 -2 6 C-2.309375 6.78375 -2.61875 7.5675 -2.9375 8.375 C-4 11 -4 11 -5 13 C-5.66 13 -6.32 13 -7 13 C-5.58832253 7.73829306 -3.25149768 4.27828642 0 0 Z " fill="#5FB7A1" transform="translate(321,169)"/>
<path d="M0 0 C2.375 0.25 2.375 0.25 5 1 C6.125 3 6.125 3 7 5 C7.99 5.33 8.98 5.66 10 6 C10 7.32 10 8.64 10 10 C5.86360664 8.40907948 2.76786752 5.39525082 0 2 C0 1.34 0 0.68 0 0 Z " fill="#59B2A9" transform="translate(290,156)"/>
<path d="M0 0 C0.33 0.66 0.66 1.32 1 2 C-1.20684945 5.31027417 -2.41447119 6.36312815 -6 8 C-8.72260881 8.24245867 -11.25696909 8.13947615 -14 8 C-13.43667969 7.72285156 -12.87335938 7.44570313 -12.29296875 7.16015625 C-9.93647297 5.9678577 -7.62285469 4.71678731 -5.3125 3.4375 C-4.52488281 3.00308594 -3.73726563 2.56867188 -2.92578125 2.12109375 C-1.05891254 1.14402834 -1.05891254 1.14402834 0 0 Z " fill="#073442" transform="translate(330,252)"/>
<path d="M0 0 C-0.845625 0.7425 -1.69125 1.485 -2.5625 2.25 C-3.7690625 3.61125 -3.7690625 3.61125 -5 5 C-4.95502158 7.27523089 -4.95502158 7.27523089 -4 9 C-5.65 8.67 -7.3 8.34 -9 8 C-8.34 5.36 -7.68 2.72 -7 0 C-2.25 -1.125 -2.25 -1.125 0 0 Z " fill="#55A79B" transform="translate(358,182)"/>
<path d="M0 0 C0.99 0 1.98 0 3 0 C3.83861979 5.36716665 0.92070405 8.79627239 -2 13 C-3.09658936 9.71023192 -2.79953138 8.28696233 -2 5 C-1.34 5 -0.68 5 0 0 Z " fill="#64B59E" transform="translate(420,91)"/>
<path d="M0 0 C1.5 1.3125 1.5 1.3125 3 3 C3 3.99 3 4.98 3 6 C3.66 6 4.32 6 5 6 C5.33 8.31 5.66 10.62 6 13 C3.39954125 10.6975881 2.15260817 8.50103323 0.8125 5.3125 C0.46832031 4.50425781 0.12414062 3.69601563 -0.23046875 2.86328125 C-0.48441406 2.24839844 -0.73835938 1.63351563 -1 1 C-0.67 0.67 -0.34 0.34 0 0 Z " fill="#5DAFA6" transform="translate(279,134)"/>
<path d="M0 0 C0.66 0.66 1.32 1.32 2 2 C0.02 4.97 -1.96 7.94 -4 11 C-4.33 10.01 -4.66 9.02 -5 8 C-4.34 8 -3.68 8 -3 8 C-2.87625 6.865625 -2.7525 5.73125 -2.625 4.5625 C-2.41875 3.386875 -2.2125 2.21125 -2 1 C-1.34 0.67 -0.68 0.34 0 0 Z " fill="#5FB299" transform="translate(415,104)"/>
<path d="M0 0 C0.33 0.66 0.66 1.32 1 2 C0.125 3.9375 0.125 3.9375 -1 6 C-1.33 6.99 -1.66 7.98 -2 9 C-4.5625 10.1875 -4.5625 10.1875 -7 11 C-5.22054913 6.95579349 -2.60470327 3.53921513 0 0 Z " fill="#6AC0A8" transform="translate(371,98)"/>
<path d="M0 0 C3.73884332 2.65654657 5.64978174 4.58110387 7 9 C5.68 8.34 4.36 7.68 3 7 C3 6.34 3 5.68 3 5 C1.68 5 0.36 5 -1 5 C-0.67 3.35 -0.34 1.7 0 0 Z " fill="#63B4AC" transform="translate(305,98)"/>
<path d="M0 0 C4.875 4.625 4.875 4.625 6 8 C7.49985609 9.66710346 7.49985609 9.66710346 9 11 C8.01 11.495 8.01 11.495 7 12 C7 11.34 7 10.68 7 10 C6.38125 9.95875 5.7625 9.9175 5.125 9.875 C4.073125 9.441875 4.073125 9.441875 3 9 C1.8125 6.125 1.8125 6.125 1 3 C0.67 2.01 0.34 1.02 0 0 Z " fill="#737A83" transform="translate(367,210)"/>
<path d="M0 0 C1.98 0.495 1.98 0.495 4 1 C3.34 2.32 2.68 3.64 2 5 C2.66 5.33 3.32 5.66 4 6 C3.34 6 2.68 6 2 6 C1.67 6.66 1.34 7.32 1 8 C-1 5 -1 5 -0.625 2.3125 C-0.41875 1.549375 -0.2125 0.78625 0 0 Z " fill="#67B3AA" transform="translate(255,90)"/>
<path d="M0 0 C-2.79716804 3.29078593 -6.19528578 5.06305458 -10 7 C-10.66 6.67 -11.32 6.34 -12 6 C-11.01 5.67 -10.02 5.34 -9 5 C-9 4.34 -9 3.68 -9 3 C-6.53167475 -0.56535869 -4.10373579 -0.27358239 0 0 Z " fill="#6F757F" transform="translate(343,269)"/>
<path d="M0 0 C0.66 0.99 1.32 1.98 2 3 C4.88595946 3.58481121 4.88595946 3.58481121 8.125 3.6875 C9.22070312 3.75324219 10.31640625 3.81898438 11.4453125 3.88671875 C12.28835938 3.92410156 13.13140625 3.96148437 14 4 C14 4.33 14 4.66 14 5 C9.05 5 4.1 5 -1 5 C-0.67 3.35 -0.34 1.7 0 0 Z " fill="#023543" transform="translate(327,223)"/>
<path d="M0 0 C0.66 0 1.32 0 2 0 C5 5.625 5 5.625 5 9 C2.5 7.3125 2.5 7.3125 0 5 C-0.3125 2.25 -0.3125 2.25 0 0 Z " fill="#4BA69B" transform="translate(311,107)"/>
<path d="M0 0 C0.33 0 0.66 0 1 0 C1.33 3.63 1.66 7.26 2 11 C1.01 11.33 0.02 11.66 -1 12 C-0.67 8.04 -0.34 4.08 0 0 Z " fill="#073846" transform="translate(341,228)"/>
<path d="M0 0 C2.62386487 3.06117568 3 3.73173127 3 8 C2.01 7.67 1.02 7.34 0 7 C-1.125 2.25 -1.125 2.25 0 0 Z " fill="#42A79D" transform="translate(317,116)"/>
<path d="M0 0 C3.93846154 4.30769231 3.93846154 4.30769231 4.25 7.8125 C4.1675 8.534375 4.085 9.25625 4 10 C-0.60921053 4.64736842 -0.60921053 4.64736842 -1 1 C-0.67 0.67 -0.34 0.34 0 0 Z " fill="#5AAAA2" transform="translate(258,97)"/>
<path d="M0 0 C1 3 1 3 -0.25 5.625 C-2 8 -2 8 -5 9 C-3.7508258 5.54074837 -2.32472205 2.85306797 0 0 Z " fill="#053745" transform="translate(346,196)"/>
<path d="M0 0 C1.32 0.66 2.64 1.32 4 2 C2.35 3.98 0.7 5.96 -1 8 C-1.33 7.01 -1.66 6.02 -2 5 C-1.01 4.67 -0.02 4.34 1 4 C0.67 2.68 0.34 1.36 0 0 Z " fill="#6EBFA8" transform="translate(380,160)"/>
<path d="M0 0 C0.99 0.33 1.98 0.66 3 1 C2.67 2.65 2.34 4.3 2 6 C1.01 6 0.02 6 -1 6 C-0.67 4.02 -0.34 2.04 0 0 Z " fill="#51A69C" transform="translate(332,146)"/>
<path d="M0 0 C0.66 0 1.32 0 2 0 C1.71758359 1.46015291 1.42373386 2.91809793 1.125 4.375 C0.96257812 5.18710938 0.80015625 5.99921875 0.6328125 6.8359375 C0 9 0 9 -2 11 C-1.85957123 9.35369672 -1.71250671 7.70795821 -1.5625 6.0625 C-1.48128906 5.14597656 -1.40007812 4.22945312 -1.31640625 3.28515625 C-1 1 -1 1 0 0 Z " fill="#1A9287" transform="translate(349,184)"/>
<path d="M0 0 C0.99 0.33 1.98 0.66 3 1 C-0.465 3.97 -0.465 3.97 -4 7 C-4 6.01 -4 5.02 -4 4 C-3.34 4 -2.68 4 -2 4 C-1.34 2.68 -0.68 1.36 0 0 Z " fill="#67B2AC" transform="translate(329,153)"/>
<path d="M0 0 C1.875 0.1875 1.875 0.1875 4 1 C5.25 3.5625 5.25 3.5625 6 6 C5.01 6.495 5.01 6.495 4 7 C2.02 3.535 2.02 3.535 0 0 Z " fill="#52ABA4" transform="translate(285,148)"/>
<path d="M0 0 C0.99 0.33 1.98 0.66 3 1 C2.67 2.32 2.34 3.64 2 5 C0.68 5 -0.64 5 -2 5 C-1.34 3.35 -0.68 1.7 0 0 Z " fill="#58B79D" transform="translate(352,129)"/>
<path d="M0 0 C1.98 0.495 1.98 0.495 4 1 C2.68 3.31 1.36 5.62 0 8 C-0.33 8 -0.66 8 -1 8 C-0.67 5.36 -0.34 2.72 0 0 Z " fill="#58B299" transform="translate(402,124)"/>
<path d="M0 0 C3.3 0 6.6 0 10 0 C6 2 6 2 4 2 C3.67 2.66 3.34 3.32 3 4 C2.67 3.01 2.34 2.02 2 1 C1.34 0.67 0.68 0.34 0 0 Z " fill="#2EA783" transform="translate(385,91)"/>
</svg>
